<svg xmlns="http://www.w3.org/2000/svg" viewBox="0 0 30 30"><defs><style>.cls-1{fill:#212121;}</style></defs><g id="Layer_2" data-name="Layer 2"><g id="Layer_1-2" data-name="Layer 1"><g id="Diagonal_Left" data-name="Diagonal Left"><path class="cls-1" d="M24,30H6a6,6,0,0,1-6-6V6A6,6,0,0,1,6,0H24a6,6,0,0,1,6,6V24A6,6,0,0,1,24,30ZM6,2A4,4,0,0,0,2,6V24a4,4,0,0,0,4,4H24a4,4,0,0,0,4-4V6a4,4,0,0,0-4-4Z"/><path class="cls-1" d="M15,16a1,1,0,0,1-.71-1.71,1,1,0,0,1,.9-.27.6.6,0,0,1,.19.06.56.56,0,0,1,.17.09l.16.12A1.05,1.05,0,0,1,16,15a1,1,0,0,1-.29.71l-.16.12a.56.56,0,0,1-.17.09.6.6,0,0,1-.19.06Z"/><path class="cls-1" d="M7,16a1,1,0,0,1-1-1V7A1,1,0,0,1,7,6h8a1,1,0,0,1,0,2H8v7A1,1,0,0,1,7,16Z"/><path class="cls-1" d="M23,24H15a1,1,0,0,1,0-2h7V15a1,1,0,0,1,2,0v8A1,1,0,0,1,23,24Z"/></g></g></g></svg>