<svg xmlns="http://www.w3.org/2000/svg" viewBox="0 0 30 30"><defs><style>.cls-1{fill:#212121;}</style></defs><g id="Layer_2" data-name="Layer 2"><g id="Layer_1-2" data-name="Layer 1"><g id="Diagonal_Right" data-name="Diagonal Right"><path class="cls-1" d="M24,30H6a6,6,0,0,1-6-6V6A6,6,0,0,1,6,0H24a6,6,0,0,1,6,6V24A6,6,0,0,1,24,30ZM6,2A4,4,0,0,0,2,6V24a4,4,0,0,0,4,4H24a4,4,0,0,0,4-4V6a4,4,0,0,0-4-4Z"/><path class="cls-1" d="M15,16a1,1,0,0,1-1-1,.84.84,0,0,1,.08-.38,1.15,1.15,0,0,1,.21-.33,1,1,0,0,1,.33-.21,1,1,0,0,1,1.09.21,1.15,1.15,0,0,1,.21.33A1,1,0,0,1,16,15a1,1,0,0,1-1,1Z"/><path class="cls-1" d="M15,24H7a1,1,0,0,1-1-1V15a1,1,0,0,1,2,0v7h7a1,1,0,0,1,0,2Z"/><path class="cls-1" d="M23,16a1,1,0,0,1-1-1V8H15a1,1,0,0,1,0-2h8a1,1,0,0,1,1,1v8A1,1,0,0,1,23,16Z"/></g></g></g></svg>