<svg xmlns="http://www.w3.org/2000/svg" viewBox="0 0 30 30"><defs><style>.cls-1{fill:#212121;}</style></defs><g id="Layer_2" data-name="Layer 2"><g id="Layer_1-2" data-name="Layer 1"><g id="Double_Right" data-name="Double Right"><path class="cls-1" d="M24,30H6a6,6,0,0,1-6-6V6A6,6,0,0,1,6,0H24a6,6,0,0,1,6,6V24A6,6,0,0,1,24,30ZM6,2A4,4,0,0,0,2,6V24a4,4,0,0,0,4,4H24a4,4,0,0,0,4-4V6a4,4,0,0,0-4-4Z"/><path class="cls-1" d="M15.5,23a1,1,0,0,1-.71-.29,1,1,0,0,1,0-1.42L21.09,15l-6.3-6.29a1,1,0,1,1,1.42-1.42l7,7a1,1,0,0,1,0,1.42l-7,7A1,1,0,0,1,15.5,23Z"/><path class="cls-1" d="M7.5,23a1,1,0,0,1-.71-.29,1,1,0,0,1,0-1.42L13.09,15,6.79,8.71A1,1,0,1,1,8.21,7.29l7,7a1,1,0,0,1,0,1.42l-7,7A1,1,0,0,1,7.5,23Z"/></g></g></g></svg>