<svg xmlns="http://www.w3.org/2000/svg" viewBox="0 0 30 30"><defs><style>.cls-1{fill:#212121;}</style></defs><g id="Layer_2" data-name="Layer 2"><g id="Layer_1-2" data-name="Layer 1"><g id="Expand"><path class="cls-1" d="M24,30H6a6,6,0,0,1-6-6V6A6,6,0,0,1,6,0H24a6,6,0,0,1,6,6V24A6,6,0,0,1,24,30ZM6,2A4,4,0,0,0,2,6V24a4,4,0,0,0,4,4H24a4,4,0,0,0,4-4V6a4,4,0,0,0-4-4Z"/><path class="cls-1" d="M11,24H7a1,1,0,0,1-1-1V19a1,1,0,0,1,2,0v3h3a1,1,0,0,1,0,2Z"/><path class="cls-1" d="M23,12a1,1,0,0,1-1-1V8H19a1,1,0,0,1,0-2h4a1,1,0,0,1,1,1v4A1,1,0,0,1,23,12Z"/><path class="cls-1" d="M8,23a1,1,0,0,1-.71-.29,1,1,0,0,1,0-1.42l4-4a1,1,0,0,1,1.42,1.42l-4,4A1,1,0,0,1,8,23Z"/><path class="cls-1" d="M18,13a1,1,0,0,1-.71-.29,1,1,0,0,1,0-1.42l4-4a1,1,0,1,1,1.42,1.42l-4,4A1,1,0,0,1,18,13Z"/><path class="cls-1" d="M7,12a1,1,0,0,1-1-1V7A1,1,0,0,1,7,6h4a1,1,0,0,1,0,2H8v3A1,1,0,0,1,7,12Z"/><path class="cls-1" d="M23,24H19a1,1,0,0,1,0-2h3V19a1,1,0,0,1,2,0v4A1,1,0,0,1,23,24Z"/><path class="cls-1" d="M12,13a1,1,0,0,1-.71-.29l-4-4A1,1,0,1,1,8.71,7.29l4,4a1,1,0,0,1,0,1.42A1,1,0,0,1,12,13Z"/><path class="cls-1" d="M22,23a1,1,0,0,1-.71-.29l-4-4a1,1,0,0,1,1.42-1.42l4,4a1,1,0,0,1,0,1.42A1,1,0,0,1,22,23Z"/></g></g></g></svg>