<svg xmlns="http://www.w3.org/2000/svg" viewBox="0 0 30 30"><defs><style>.cls-1{fill:#212121;}</style></defs><g id="Layer_2" data-name="Layer 2"><g id="Layer_1-2" data-name="Layer 1"><g id="Horizontal"><path class="cls-1" d="M24,30H6a6,6,0,0,1-6-6V6A6,6,0,0,1,6,0H24a6,6,0,0,1,6,6V24A6,6,0,0,1,24,30ZM6,2A4,4,0,0,0,2,6V24a4,4,0,0,0,4,4H24a4,4,0,0,0,4-4V6a4,4,0,0,0-4-4Z"/><path class="cls-1" d="M15,16a1,1,0,0,1-.38-.08.9.9,0,0,1-.54-.54.94.94,0,0,1,0-.76,1,1,0,0,1,.21-.33,1.15,1.15,0,0,1,.33-.21,1,1,0,0,1,1.09.21,1.15,1.15,0,0,1,.21.33,1,1,0,0,1-.21,1.09,1.15,1.15,0,0,1-.33.21A1,1,0,0,1,15,16Z"/><path class="cls-1" d="M10,21a1,1,0,0,1-.71-.29l-5-5a1,1,0,0,1,0-1.42l5-5a1,1,0,0,1,1.42,1.42L6.41,15l4.3,4.29a1,1,0,0,1,0,1.42A1,1,0,0,1,10,21Z"/><path class="cls-1" d="M20,21a1,1,0,0,1-.71-.29,1,1,0,0,1,0-1.42L23.59,15l-4.3-4.29a1,1,0,0,1,1.42-1.42l5,5a1,1,0,0,1,0,1.42l-5,5A1,1,0,0,1,20,21Z"/></g></g></g></svg>