<svg xmlns="http://www.w3.org/2000/svg" viewBox="0 0 30 30"><defs><style>.cls-1{fill:#212121;}</style></defs><g id="Layer_2" data-name="Layer 2"><g id="Layer_1-2" data-name="Layer 1"><g id="Rotate_Right" data-name="Rotate Right"><path class="cls-1" d="M24,30H6a6,6,0,0,1-6-6V6A6,6,0,0,1,6,0H24a6,6,0,0,1,6,6V24A6,6,0,0,1,24,30ZM6,2A4,4,0,0,0,2,6V24a4,4,0,0,0,4,4H24a4,4,0,0,0,4-4V6a4,4,0,0,0-4-4Z"/><path class="cls-1" d="M14,24a9,9,0,1,1,9-9.13,1,1,0,0,1-2,0,7,7,0,1,0-1.67,4.64,1,1,0,0,1,1.52,1.3A8.94,8.94,0,0,1,14.71,24Q14.35,24,14,24Z"/><path class="cls-1" d="M22.24,16a1,1,0,0,1-.52-.15L19.3,14.38a1,1,0,0,1,1.05-1.71l1.56.95.95-1.56a1,1,0,0,1,1.37-.33,1,1,0,0,1,.34,1.38l-1.48,2.41A1,1,0,0,1,22.24,16Z"/></g></g></g></svg>