<svg xmlns="http://www.w3.org/2000/svg" viewBox="0 0 30 30"><defs><style>.cls-1{fill:#212121;}</style></defs><g id="Layer_2" data-name="Layer 2"><g id="Layer_1-2" data-name="Layer 1"><g id="Rotate_Left" data-name="Rotate Left"><path class="cls-1" d="M24,30H6a6,6,0,0,1-6-6V6A6,6,0,0,1,6,0H24a6,6,0,0,1,6,6V24A6,6,0,0,1,24,30ZM6,2A4,4,0,0,0,2,6V24a4,4,0,0,0,4,4H24a4,4,0,0,0,4-4V6a4,4,0,0,0-4-4Z"/><path class="cls-1" d="M16,24q-.36,0-.72,0a8.94,8.94,0,0,1-6.14-3.13,1,1,0,1,1,1.52-1.3A7,7,0,1,0,9,14.9a1,1,0,0,1-1,1,1,1,0,0,1-1-1,9,9,0,0,1,3.16-6.72,9,9,0,0,1,11.68,13.7A8.94,8.94,0,0,1,16,24Z"/><path class="cls-1" d="M7.76,16a.85.85,0,0,1-.23,0,1,1,0,0,1-.62-.45L5.43,13.11a1,1,0,0,1,.34-1.38,1,1,0,0,1,1.37.34l1,1.55,1.56-.95a1,1,0,0,1,1,1.71L8.28,15.85A1,1,0,0,1,7.76,16Z"/></g></g></g></svg>