<svg xmlns="http://www.w3.org/2000/svg" viewBox="0 0 30 30"><defs><style>.cls-1{fill:#212121;}</style></defs><g id="Layer_2" data-name="Layer 2"><g id="Layer_1-2" data-name="Layer 1"><g id="Shrink"><path class="cls-1" d="M24,30H6a6,6,0,0,1-6-6V6A6,6,0,0,1,6,0H24a6,6,0,0,1,6,6V24A6,6,0,0,1,24,30ZM6,2A4,4,0,0,0,2,6V24a4,4,0,0,0,4,4H24a4,4,0,0,0,4-4V6a4,4,0,0,0-4-4Z"/><path class="cls-1" d="M11.25,22.75l-.2,0a1,1,0,0,1-.78-1.18l.46-2.28-2.28.46a1,1,0,0,1-.4-2L11.8,17a1,1,0,0,1,.91.27,1,1,0,0,1,.27.91L12.23,22A1,1,0,0,1,11.25,22.75Z"/><path class="cls-1" d="M18,13a1,1,0,0,1-.71-.29A1,1,0,0,1,17,11.8l.75-3.75a1,1,0,0,1,2,.4l-.46,2.28,2.28-.46a1,1,0,0,1,.4,2L18.2,13Z"/><path class="cls-1" d="M7.12,23.88a1,1,0,0,1-.7-.3,1,1,0,0,1,0-1.41l4-4a1,1,0,0,1,1.41,1.41l-4,4A1,1,0,0,1,7.12,23.88Z"/><path class="cls-1" d="M18.88,12.12a1,1,0,0,1-.71-.29,1,1,0,0,1,0-1.41l4-4a1,1,0,0,1,1.41,1.41l-4,4A1,1,0,0,1,18.88,12.12Z"/><path class="cls-1" d="M12,13l-.2,0-3.75-.75a1,1,0,0,1,.4-2l2.28.46-.46-2.28a1,1,0,1,1,2-.4L13,11.8a1,1,0,0,1-.27.91A1,1,0,0,1,12,13Z"/><path class="cls-1" d="M18.75,22.75a1,1,0,0,1-1-.8L17,18.2a1,1,0,0,1,.27-.91A1,1,0,0,1,18.2,17l3.75.75a1,1,0,0,1-.4,2l-2.28-.46.46,2.28A1,1,0,0,1,19,22.73Z"/><path class="cls-1" d="M11.12,12.12a1,1,0,0,1-.7-.29l-4-4A1,1,0,0,1,7.83,6.42l4,4a1,1,0,0,1,0,1.41A1,1,0,0,1,11.12,12.12Z"/><path class="cls-1" d="M22.88,23.88a1,1,0,0,1-.71-.3l-4-4a1,1,0,0,1,1.41-1.41l4,4a1,1,0,0,1,0,1.41A1,1,0,0,1,22.88,23.88Z"/></g></g></g></svg>