<svg xmlns="http://www.w3.org/2000/svg" viewBox="0 0 30 30"><defs><style>.cls-1{fill:#212121;}</style></defs><g id="Layer_2" data-name="Layer 2"><g id="Layer_1-2" data-name="Layer 1"><g id="Topline"><path class="cls-1" d="M24,30H6a6,6,0,0,1-6-6V6A6,6,0,0,1,6,0H24a6,6,0,0,1,6,6V24A6,6,0,0,1,24,30ZM6,2A4,4,0,0,0,2,6V24a4,4,0,0,0,4,4H24a4,4,0,0,0,4-4V6a4,4,0,0,0-4-4Z"/><path class="cls-1" d="M21,24H9a1,1,0,0,1,0-2H21a1,1,0,0,1,0,2Z"/><path class="cls-1" d="M14.94,18.09a1,1,0,0,1-.72-.3L10.69,14.2a1,1,0,0,1,1.43-1.41l2.82,2.88,2.82-2.88a1,1,0,0,1,1.41,0,1,1,0,0,1,0,1.42l-3.54,3.59A1,1,0,0,1,14.94,18.09Z"/><path class="cls-1" d="M15,18a1,1,0,0,1-1-1V7a1,1,0,0,1,2,0V17A1,1,0,0,1,15,18Z"/></g></g></g></svg>