<svg xmlns="http://www.w3.org/2000/svg" viewBox="0 0 30 30"><defs><style>.cls-1{fill:#212121;}</style></defs><g id="Layer_2" data-name="Layer 2"><g id="Layer_1-2" data-name="Layer 1"><g id="Vertical"><path class="cls-1" d="M24,30H6a6,6,0,0,1-6-6V6A6,6,0,0,1,6,0H24a6,6,0,0,1,6,6V24A6,6,0,0,1,24,30ZM6,2A4,4,0,0,0,2,6V24a4,4,0,0,0,4,4H24a4,4,0,0,0,4-4V6a4,4,0,0,0-4-4Z"/><path class="cls-1" d="M15,16a1,1,0,0,1-1-1,.84.84,0,0,1,.08-.38.9.9,0,0,1,.54-.54.92.92,0,0,1,.76,0,.9.9,0,0,1,.54.54A.84.84,0,0,1,16,15a1,1,0,0,1-1,1Z"/><path class="cls-1" d="M15,26a1,1,0,0,1-.71-.29l-5-5a1,1,0,0,1,1.42-1.42L15,23.59l4.29-4.3a1,1,0,0,1,1.42,1.42l-5,5A1,1,0,0,1,15,26Z"/><path class="cls-1" d="M20,11a1,1,0,0,1-.71-.29L15,6.41l-4.29,4.3A1,1,0,0,1,9.29,9.29l5-5a1,1,0,0,1,1.42,0l5,5a1,1,0,0,1,0,1.42A1,1,0,0,1,20,11Z"/></g></g></g></svg>